<svg height="480pt" viewBox="0 -48 480 480" width="480pt" xmlns="http://www.w3.org/2000/svg" xmlns:xlink="http://www.w3.org/1999/xlink"><linearGradient id="a"><stop offset="0" stop-color="#e93e3a"/><stop offset=".36" stop-color="#ed683c"/><stop offset=".716" stop-color="#f3903f"/><stop offset="1" stop-color="#fdc70c"/></linearGradient><linearGradient id="b" gradientUnits="userSpaceOnUse" x1="240.784" x2="233.488" xlink:href="#a" y1="387.864" y2="-19.088"/><linearGradient id="c" gradientUnits="userSpaceOnUse" x1="240.64" x2="233.344" xlink:href="#a" y1="387.52" y2="-19.432"/><linearGradient id="d" gradientUnits="userSpaceOnUse" x1="126.408" x2="119.112" xlink:href="#a" y1="389.568" y2="-17.384"/><linearGradient id="e" gradientUnits="userSpaceOnUse" x1="158.4" x2="151.104" xlink:href="#a" y1="388.992" y2="-17.96"/><linearGradient id="f" gradientUnits="userSpaceOnUse" x1="190.384" x2="183.096" xlink:href="#a" y1="388.416" y2="-18.528"/><linearGradient id="g" gradientUnits="userSpaceOnUse" x1="243.936" x2="236.64" xlink:href="#a" y1="387.464" y2="-19.488"/><linearGradient id="h" gradientUnits="userSpaceOnUse" x1="337.048" x2="329.76" xlink:href="#a" y1="385.792" y2="-21.16"/><linearGradient id="i" gradientUnits="userSpaceOnUse" x1="166.808" x2="159.52" xlink:href="#a" y1="388.84" y2="-18.104"/><linearGradient id="j" gradientUnits="userSpaceOnUse" x1="334.76" x2="327.464" xlink:href="#a" y1="385.832" y2="-21.12"/><linearGradient id="k" gradientUnits="userSpaceOnUse" x1="340.472" x2="333.184" xlink:href="#a" y1="385.728" y2="-21.224"/><linearGradient id="l" gradientUnits="userSpaceOnUse" x1="339.904" x2="332.608" xlink:href="#a" y1="385.744" y2="-21.208"/><linearGradient id="m" gradientUnits="userSpaceOnUse" x1="339.328" x2="332.032" xlink:href="#a" y1="385.752" y2="-21.2"/><linearGradient id="n" gradientUnits="userSpaceOnUse" x1="148.536" x2="141.248" xlink:href="#a" y1="389.168" y2="-17.784"/><linearGradient id="o" gradientUnits="userSpaceOnUse" x1="155.96" x2="148.672" xlink:href="#a" y1="389.04" y2="-17.912"/><linearGradient id="p" gradientUnits="userSpaceOnUse" x1="147.392" x2="140.096" xlink:href="#a" y1="389.192" y2="-17.76"/><linearGradient id="q" gradientUnits="userSpaceOnUse" x1="132.176" x2="124.888" xlink:href="#a" y1="389.464" y2="-17.488"/><linearGradient id="r" gradientUnits="userSpaceOnUse" x1="182.32" x2="175.032" xlink:href="#a" y1="388.568" y2="-18.384"/><path d="m472 320h-16v-248c-.027344-22.082031-17.917969-39.972656-40-40h-16v-8c0-13.253906-10.746094-24-24-24h-272c-13.253906 0-24 10.746094-24 24v8h-16c-22.082031.027344-39.972656 17.917969-40 40v248h-16c-4.417969 0-8 3.582031-8 8v32c0 13.253906 10.746094 24 24 24h432c13.253906 0 24-10.746094 24-24v-32c0-4.417969-3.582031-8-8-8zm-376-256h288v200c0 4.417969-3.582031 8-8 8h-272c-4.417969 0-8-3.582031-8-8zm8-48h272c4.417969 0 8 3.582031 8 8v24h-288v-24c0-4.417969 3.582031-8 8-8zm-64 56c0-13.253906 10.746094-24 24-24h16v216c0 13.253906 10.746094 24 24 24h272c13.253906 0 24-10.746094 24-24v-216h16c13.253906 0 24 10.746094 24 24v248h-400zm424 288c0 4.417969-3.582031 8-8 8h-432c-4.417969 0-8-3.582031-8-8v-24h448zm0 0" fill="url(#b)"/><path d="m208 344h64v16h-64zm0 0" fill="url(#c)"/><path d="m112 24h16v16h-16zm0 0" fill="url(#d)"/><path d="m144 24h16v16h-16zm0 0" fill="url(#e)"/><path d="m176 24h16v16h-16zm0 0" fill="url(#f)"/><path d="m240 232c35.347656 0 64-28.652344 64-64s-28.652344-64-64-64-64 28.652344-64 64c.039062 35.328125 28.671875 63.960938 64 64zm0-112c26.507812 0 48 21.492188 48 48s-21.492188 48-48 48-48-21.492188-48-48c.027344-26.5 21.5-47.972656 48-48zm0 0" fill="url(#g)"/><path d="m223.023438 196.28125 16.976562-16.96875 16.976562 16.96875 11.3125-11.3125-16.976562-16.96875 16.976562-16.96875-11.3125-11.3125-16.976562 16.96875-16.976562-16.96875-11.3125 11.3125 16.976562 16.96875-16.976562 16.96875zm0 0" fill="url(#g)"/><path d="m312 96h40v16h-40zm0 0" fill="url(#h)"/><path d="m144 224h40v16h-40zm0 0" fill="url(#i)"/><path d="m312 224h40v16h-40zm0 0" fill="url(#j)"/><path d="m320 128h32v16h-32zm0 0" fill="url(#k)"/><path d="m320 160h32v16h-32zm0 0" fill="url(#l)"/><path d="m320 192h32v16h-32zm0 0" fill="url(#m)"/><path d="m128 128h32v16h-32zm0 0" fill="url(#n)"/><path d="m144 160h16v16h-16zm0 0" fill="url(#o)"/><path d="m128 192h32v16h-32zm0 0" fill="url(#p)"/><path d="m130.34375 117.65625 11.3125-11.3125-10.34375-10.34375 10.34375-10.34375-11.3125-11.3125-16 16c-3.121094 3.125-3.121094 8.1875 0 11.3125zm0 0" fill="url(#q)"/><path d="m173.65625 117.65625 16-16c3.121094-3.125 3.121094-8.1875 0-11.3125l-16-16-11.3125 11.3125 10.34375 10.34375-10.34375 10.34375zm0 0" fill="url(#r)"/></svg>